<svg id="Layer_1" data-name="Layer 1" xmlns="http://www.w3.org/2000/svg" viewBox="0 0 199.97 109.71"><defs><style>.cls-1{fill:#fff;}</style></defs><title>logo-white</title><path class="cls-1" d="M199.8,77.65a0.14,0.14,0,0,1,0-.12c0-.09-0.08-0.09-0.16,0l0-.07,0,0V77.29h-0.15l0,0a0.63,0.63,0,0,0,0-.16l-0.14,0h0a1.43,1.43,0,0,0-.3-0.48l-0.14-.2a0.22,0.22,0,0,1,0-.17,3.71,3.71,0,0,1-.16-0.57,0.22,0.22,0,0,1,0-.16,0.1,0.1,0,0,0,0-.05,0.09,0.09,0,0,0-.1,0,0.72,0.72,0,0,0-.1-0.5,5.81,5.81,0,0,1-.17-0.56,0.16,0.16,0,0,1,0-.14,0.13,0.13,0,0,0,0-.06,0.12,0.12,0,0,0-.13,0V73.77H198l0,0v0h0v0s0,0,0,0l0,0,0-.26h-0.12l0,0,0,0a1.18,1.18,0,0,0,0-.12h-0.1l0,0,0,0s0-.08,0-0.13h-0.11l0,0,0,0s0-.08,0-0.12h-0.11l0,0,0,0V72.65H197.1l0,0h0a1.25,1.25,0,0,0,0-.15H196.9l0,0,0,0a0.91,0.91,0,0,0,0-.11h-0.11l0,0a0.2,0.2,0,0,0,0-.13,0.62,0.62,0,0,0-.2-0.19,0.43,0.43,0,0,0-.2-0.19,3.87,3.87,0,0,0-.33-0.23,0.76,0.76,0,0,1-.18-0.16,1.48,1.48,0,0,0-.2-0.17A0.39,0.39,0,0,0,195.3,71a0.12,0.12,0,0,1-.12-0.06l-0.12-.1a0.7,0.7,0,0,0-.2-0.17,1.79,1.79,0,0,0-.36-0.21,0.49,0.49,0,0,0-.25-0.17,0.13,0.13,0,0,1-.13,0l-0.19-.14a0.3,0.3,0,0,0-.36-0.07,0.41,0.41,0,0,0-.07.14,0.18,0.18,0,0,1,0-.1h0l0.06-.06V69.94l0-.14a0.51,0.51,0,0,0-.25-0.16,0.11,0.11,0,0,1-.12,0,0.12,0.12,0,0,0-.22.09h0l-0.12,0,0.21-.22V69.42l-0.12-.07a0.13,0.13,0,0,1-.13,0,0.68,0.68,0,0,0-.24-0.14,0.14,0.14,0,0,1-.14,0,0.7,0.7,0,0,0-.24-0.14,0.13,0.13,0,0,1-.13,0,1.75,1.75,0,0,1-.36-0.17c-0.11-.1-0.28-0.07-0.39-0.17a0.22,0.22,0,0,1-.17,0l-0.18-.12h0a0.54,0.54,0,0,0-.2-0.19,1.82,1.82,0,0,0-.16-0.21,0.13,0.13,0,0,1,0-.14,0.6,0.6,0,0,1,0-.62,0.54,0.54,0,0,0,.18-0.21,0.39,0.39,0,0,0,.2-0.19,0.31,0.31,0,0,0,.07-0.12,0.12,0.12,0,0,0,.08,0,5,5,0,0,1,.73-0.17h0.34l0.06,0a0.08,0.08,0,0,0,0-.06h0.08a0.51,0.51,0,0,0,.37-0.09,1.89,1.89,0,0,0,.37-0.35,0.69,0.69,0,0,0,.15-0.25,0.11,0.11,0,0,1,0-.12c0.17-.36,0-0.79.17-1.16V64.12a4,4,0,0,1,.2-0.38,0.68,0.68,0,0,0,.18-0.2,1,1,0,0,0,.21-0.17,0.87,0.87,0,0,0,.35-0.39c0.13-.22,0-0.31-0.17-0.43l-0.07,0h0a0.12,0.12,0,0,0,0-.14,0.81,0.81,0,0,1,0-.17,1.22,1.22,0,0,0-.19-0.2l-0.19-.19-0.19-.19-0.2-.19H193.1l-0.19-.17h-0.19l-0.18-.17h-0.2c-0.1-.1-0.27-0.06-0.37-0.17H190.5l-0.37.16h-0.2a0.75,0.75,0,0,1-.17-0.15,0.48,0.48,0,0,0-.55,0h-0.86l0,0h0a0.17,0.17,0,0,0,0-.22,0.22,0.22,0,0,1,0-.14,0.47,0.47,0,0,0-.19-0.23,0.9,0.9,0,0,0-.19-0.2,1,1,0,0,0-.19-0.19c-0.09-.12-0.27-0.08-0.36-0.2s-0.28-.07-0.38-0.18h-0.19c-0.13-.07-0.28-0.06-0.4-0.14h-0.35a2.25,2.25,0,0,1-.38-0.15,0.33,0.33,0,0,1-.17,0,0.76,0.76,0,0,1-.42-0.31,0.26,0.26,0,0,1-.16,0,1.44,1.44,0,0,1-.35-0.17l-0.2-.17-0.15-.19a0.3,0.3,0,0,1,0-.17,0.2,0.2,0,0,0-.25,0v-0.4l0,0a0.16,0.16,0,0,0,0-.15V57.61l0,0a0.14,0.14,0,0,0,.19,0V57.26a0.73,0.73,0,0,1,.76,0h0.15a3.18,3.18,0,0,0,1.63-.12c0.11-.09.27-0.06,0.38-0.16h0.11a0.47,0.47,0,0,0,.26-0.16,3.29,3.29,0,0,0,.54-0.4,0.35,0.35,0,0,0,.2-0.2c0.29-.45.8-0.14,1.15-0.35h0.13a0.43,0.43,0,0,0,.24-0.18,1.42,1.42,0,0,0,.19-0.4V55a0.58,0.58,0,0,0-.16-0.25,0.27,0.27,0,0,0-.23-0.06V54.64a0.44,0.44,0,0,1-.39-0.23L189,54.27a0.42,0.42,0,0,1-.34-0.41h-0.06a0.78,0.78,0,0,0-.15-0.18l-0.09-.07,0,0s0,0,0,0h0l-0.13-.1h0c0-.07,0-0.08-0.1-0.08a0.11,0.11,0,0,1-.11,0l-0.12-.06,0,0h0v0a0.1,0.1,0,0,0-.08-0.09,0.16,0.16,0,0,1-.14,0,1.07,1.07,0,0,0-.4-0.15,4.18,4.18,0,0,0-1.08.06,1,1,0,0,1-.57,0C185.39,53,185.24,53,185.1,53l-0.51-.06a2.72,2.72,0,0,1-.57-0.13,0.18,0.18,0,0,1-.16,0,0.47,0.47,0,0,0-.32-0.07h-0.05l0-.06a0.2,0.2,0,0,1-.2,0,0.11,0.11,0,0,0-.14,0v0h0a0.53,0.53,0,0,0,0-.08v-0.1a1.35,1.35,0,0,1-.19-0.35,1.54,1.54,0,0,1,0-.94,0.46,0.46,0,0,0,0-.54,0.68,0.68,0,0,0-.19-0.19,2.84,2.84,0,0,0-.59-0.19h-0.48c-0.24.16-.54,0-0.78,0.16a0.17,0.17,0,0,1-.15,0,2.72,2.72,0,0,0-.47.13,2.26,2.26,0,0,1-.36.18c-0.08.13-.27,0.08-0.35,0.21a0.81,0.81,0,0,0-.2.18,0.61,0.61,0,0,0-.12.18,0.44,0.44,0,0,1-.08.08l-0.1.07a0.44,0.44,0,0,1-.41,0h0a0.63,0.63,0,0,0,0-.09h-0.3a0.08,0.08,0,0,0-.06.14h0l0,0a0.39,0.39,0,0,0-.33.06,0.64,0.64,0,0,1-.17.17,1.07,1.07,0,0,0-.15.24,0.15,0.15,0,0,1,0,.14c-0.21.52,0.06,1-.16,1.52a0.17,0.17,0,0,1,0,.13,0.19,0.19,0,0,0,.33,0c0.11-.09.28-0.07,0.38-0.17a5.09,5.09,0,0,1,.55-0.19h0.11a0.11,0.11,0,0,0,.08-0.08,0.72,0.72,0,0,0,.48-0.1,0.41,0.41,0,0,1,.55,0,1.07,1.07,0,0,1,.2.31l0,0h0a0.32,0.32,0,0,0,0,.13l-0.16,0v0.15l0,0h0a0.26,0.26,0,0,0-.17.08,0.28,0.28,0,0,1,0,.15l-0.21.26a2.4,2.4,0,0,1-.21.34,4.54,4.54,0,0,1-.89.17h-0.55a4,4,0,0,1-.57.16h-0.19a0.2,0.2,0,0,0,0,.21,0.26,0.26,0,0,0-.28,0h-0.19a1.4,1.4,0,0,1-.37.15h-0.19a1.33,1.33,0,0,1-.37.14l-0.34.06a0.08,0.08,0,0,0-.08.09,0.93,0.93,0,0,0-.33,0,0.77,0.77,0,0,1-.57,0l-0.17-.15a0.37,0.37,0,0,0-.24-0.07h0V55.36A4.86,4.86,0,0,0,173.6,55l-0.34-.22-0.19-.18a0.25,0.25,0,0,1-.21-0.15,0.45,0.45,0,0,1-.34-0.22l-0.21-.15a0.44,0.44,0,0,1-.35-0.21,0.46,0.46,0,0,1-.36-0.2h-0.13v0a0.16,0.16,0,0,0-.13-0.19,0.13,0.13,0,0,1-.13,0,0.72,0.72,0,0,0-.24-0.14,0.14,0.14,0,0,1-.13,0,0.7,0.7,0,0,0-.24-0.14,0.13,0.13,0,0,1-.13,0h0l-0.05,0h0a0.27,0.27,0,0,0-.16-0.21,0.14,0.14,0,0,1-.13,0,2.92,2.92,0,0,1-.37-0.17l-0.39-.18a0.25,0.25,0,0,1-.17,0,0.72,0.72,0,0,0-.28-0.26,0.12,0.12,0,0,1-.13,0,3.34,3.34,0,0,0-.4-0.17,0.21,0.21,0,0,1-.16,0,2,2,0,0,1-.36-0.16,1.6,1.6,0,0,0-.42-0.17,0.15,0.15,0,0,1-.14,0,1.94,1.94,0,0,1-.35-0.18c-0.12-.08-0.08-0.27-0.21-0.35a1.53,1.53,0,0,0-.17-0.21c-0.13-.09-0.08-0.27-0.21-0.36l-0.15-.19a0.15,0.15,0,0,1,0-.13h0a0.15,0.15,0,0,0-.17-0.1V50.2H166a0.38,0.38,0,0,0-.13-0.33,0.64,0.64,0,0,0-.18-0.21,1.11,1.11,0,0,1-.15-0.18,0.1,0.1,0,0,1-.06-0.11,0.34,0.34,0,0,0-.14-0.23,0.49,0.49,0,0,0-.2-0.2,0.18,0.18,0,0,0-.21-0.09h0s0-.06,0-0.09a0.22,0.22,0,0,1-.17-0.2H164.6a1.21,1.21,0,0,1-.09-0.24,0.14,0.14,0,0,1,0-.11,0.1,0.1,0,0,0,0,0,0.1,0.1,0,0,0,0,0V47.86l0.09,0V47.68a0.49,0.49,0,0,1,0-.08c0.06-.07.09-0.16,0.15-0.23a0.64,0.64,0,0,0,.17-0.21,1,1,0,0,0,0-.92,0.08,0.08,0,0,1,0-.11h0a0.51,0.51,0,0,0-.72-0.06l-0.2.17a0.41,0.41,0,0,1-.16.14,0.12,0.12,0,0,1-.13.07,0.55,0.55,0,0,1-.5,0,0.1,0.1,0,0,1-.12,0,0.69,0.69,0,0,0-.24-0.14,0.13,0.13,0,0,1-.14,0,2.54,2.54,0,0,1-.38-0.15h-0.18a3.56,3.56,0,0,0-1.47,0h-0.37a3.79,3.79,0,0,1-.57.15h-0.18a5.18,5.18,0,0,1-.57.16,0.18,0.18,0,0,1-.17,0,4.68,4.68,0,0,1-.57.15H157.7a0.15,0.15,0,0,0-.1.19,2.07,2.07,0,0,0,.15.22L157.64,47a0.87,0.87,0,0,0-.53,0L157,47l0,0a0.22,0.22,0,0,0,.15-0.11l-0.22,0a0.42,0.42,0,0,0,0,.08,0.53,0.53,0,0,0-.19-0.08,0.11,0.11,0,0,1-.14,0,0.58,0.58,0,0,0-.24-0.15,0.12,0.12,0,0,1-.13,0,0.6,0.6,0,0,0-.54,0,0.12,0.12,0,0,1-.13,0,0.08,0.08,0,0,0-.07.13l0-.08a1.47,1.47,0,0,1-.7-0.14,0.31,0.31,0,0,1-.15-0.15,0.1,0.1,0,0,1-.07-0.12,0.38,0.38,0,0,0-.18-0.26,1.57,1.57,0,0,0-.17-0.2L154,45.7c-0.22-.18-0.54,0-0.76-0.18a0.17,0.17,0,0,1-.17,0,0.4,0.4,0,0,1-.17-0.52,0.33,0.33,0,0,0,0-.36c0.1,0.06.15,0,.15-0.07a0.11,0.11,0,0,1,0-.13,0.61,0.61,0,0,0,.09-0.52l0.28-.05a0.45,0.45,0,0,1,.36-0.2V43.61a0.59,0.59,0,0,0,.19-0.09,1.37,1.37,0,0,1,.18-0.17l0.16-.21a0.41,0.41,0,0,0,0-.55l0,0a0.06,0.06,0,0,1,0-.08,0.38,0.38,0,0,0-.21-0.29,1.62,1.62,0,0,0-.18-0.2l-0.18-.18a1.43,1.43,0,0,0-.19-0.18,0.59,0.59,0,0,0-.2-0.19,0.57,0.57,0,0,0-.19-0.2c-0.19-.28,0-0.43.19-0.59l0.3-.15h0.27l0.07-.32h0a0.14,0.14,0,0,0,.21-0.07V39.8l0.18-.19a1.57,1.57,0,0,0,.36-0.2,0.67,0.67,0,0,0,.2-0.18l0.19-.18,0.18-.2a0.41,0.41,0,0,0,.18-0.25,0.1,0.1,0,0,1,0-.12,2.84,2.84,0,0,1,.16-0.37,0.73,0.73,0,0,0,.1-0.48l0.12,0v-2a3.23,3.23,0,0,1,.17-0.72,0.07,0.07,0,0,0,0-.06,0.13,0.13,0,0,0,0-.08,0.26,0.26,0,0,0,.18-0.16,0.12,0.12,0,0,1,0-.12l0,0a0.25,0.25,0,0,0,0-.35c-0.05-.07-0.12-0.13-0.17-0.2a0.28,0.28,0,0,0-.24,0h0l0,0,0-.23V33.52a0.58,0.58,0,0,1-.16-0.17,0.41,0.41,0,0,1-.16-0.17,0.32,0.32,0,0,1-.16-0.16c-0.26-.39,0-0.86-0.18-1.26V31.41a2.4,2.4,0,0,1,0-1.36,0.19,0.19,0,0,1,0-.16,0.49,0.49,0,0,0,0-.55L155,29.15l-0.2-.17c-0.1-.12-0.27-0.08-0.37-0.19a0.35,0.35,0,0,0-.38,0l0,0c0.06-.09,0-0.17-0.14-0.22a0.11,0.11,0,0,1-.12,0,2,2,0,0,1-.35-0.19,3.18,3.18,0,0,1-.2-0.35,2,2,0,0,0-.2-0.37,1.1,1.1,0,0,0-.18-0.2,1.53,1.53,0,0,1-.17-0.19,1,1,0,0,1-.18-0.17,0.6,0.6,0,0,0-.2-0.17,0.39,0.39,0,0,0-.26-0.18,0.1,0.1,0,0,1-.11,0l0,0h0v0a0.13,0.13,0,0,0-.1-0.15,0.14,0.14,0,0,1-.13,0l-0.41-.15h-0.34a2.65,2.65,0,0,1-.56-0.15h-0.37c-0.23-.15-0.53,0-0.76-0.15l-0.35-.06a0.26,0.26,0,0,1-.14-0.13,0.14,0.14,0,0,1-.06-0.12,0.38,0.38,0,0,0-.19-0.25,0.62,0.62,0,0,0-.19-0.2,0.75,0.75,0,0,0-.19-0.19,0.65,0.65,0,0,0-.2-0.19,0.39,0.39,0,0,0-.25-0.18,0.13,0.13,0,0,1-.12,0l-0.19-.15a0.31,0.31,0,0,0-.3-0.08V24.51a0.08,0.08,0,0,0-.09-0.08,0.22,0.22,0,0,1-.16,0,0.27,0.27,0,0,0-.31,0,1.34,1.34,0,0,1-.27-0.12H145.1a3.7,3.7,0,0,1-.58.14h-0.37a8.24,8.24,0,0,1-1.88.09h-0.11a0.11,0.11,0,0,0-.06-0.13h-0.35c-0.18-.15-0.41,0-0.59-0.15h-0.34a1.59,1.59,0,0,1-.37-0.15,1.65,1.65,0,0,0-1.1,0,0.25,0.25,0,0,1-.17,0,2.75,2.75,0,0,0-.39.18c-0.1.11-.27,0.07-0.37,0.19h-0.06c-0.06,0,0,.1,0,0.1a0.5,0.5,0,0,0,0,.08,0.42,0.42,0,0,0-.37,0,0.14,0.14,0,0,1-.13,0,2.75,2.75,0,0,1-.73.1s-0.07.08-.1,0.12a1,1,0,0,0,0-.1,0.12,0.12,0,0,0,.09-0.12c0-.08,0-0.08-0.11-0.08a0.16,0.16,0,0,1-.14,0,1.12,1.12,0,0,0-.22-0.14,0.2,0.2,0,0,1-.15,0l-0.19-.14A2.56,2.56,0,0,0,136,24c-0.09-.11-0.27-0.07-0.36-0.19a0.49,0.49,0,0,0-.26-0.16,0.11,0.11,0,0,1-.12,0,0.68,0.68,0,0,0-.24-0.15,0.15,0.15,0,0,1-.13-0.07,2.84,2.84,0,0,1-.2-0.32L134.57,23a0.24,0.24,0,0,1,0-.27,0.4,0.4,0,0,0,0-.09l0.07,0c0.07-.14.26-0.08,0.33-0.22a0.5,0.5,0,0,0,.2-0.2,2.35,2.35,0,0,0,.21-0.36,4.37,4.37,0,0,0,.17-0.59,0.09,0.09,0,0,1,0-.11c-0.18-.24,0-0.55-0.18-0.78s0-.41-0.18-0.56a0.14,0.14,0,0,1,0-.13,0.34,0.34,0,0,1,0-.42v0a0.53,0.53,0,0,0-.18-0.73,1,1,0,0,0-.24-0.15,0.17,0.17,0,0,1-.14,0,1,1,0,0,1-.18-0.16,0.74,0.74,0,0,1-.15-0.18V17.76a0.68,0.68,0,0,1,0-.72,0.14,0.14,0,0,1,.12-0.06,0.3,0.3,0,0,0,.26-0.21l0.05,0.05a0.23,0.23,0,0,0,.32-0.07h0.14a1.22,1.22,0,0,0,.41-0.19,2.07,2.07,0,0,0,.2-0.38V15.85a0.84,0.84,0,0,0-.24-0.38H134.7l-0.2-.16a2.85,2.85,0,0,0-.36-0.21,0.85,0.85,0,0,1-.79-0.54,0.13,0.13,0,0,1-.11,0,2,2,0,0,1-.39.14l-0.54,0-0.06,0a0.07,0.07,0,0,0,0,.08l0,0a1.82,1.82,0,0,1-.57-0.1h-0.52a3.8,3.8,0,0,1-.41-0.22,0.23,0.23,0,0,1-.17,0,0.2,0.2,0,0,0-.14,0,0.67,0.67,0,0,1,0-.1c0-.08,0-0.08-0.1-0.08a0.11,0.11,0,0,1-.12,0,0.51,0.51,0,0,0-.26-0.15,0.11,0.11,0,0,1-.12,0,1,1,0,0,0-.22-0.15,0.22,0.22,0,0,1-.16,0,0.94,0.94,0,0,0-.49,0l-0.08.06h-0.13a0.14,0.14,0,0,1-.1,0l-0.06,0a0.1,0.1,0,0,0,0,.14h0l-0.07.05a0.28,0.28,0,0,0-.1-0.07l-0.12.06a1.67,1.67,0,0,1-.35.18,0.93,0.93,0,0,1-.35.15,2.11,2.11,0,0,1-1.13,0,0.49,0.49,0,0,0-.14,0v0a0.1,0.1,0,0,0-.08-0.1,0.19,0.19,0,0,1-.14,0h-0.37a0.21,0.21,0,0,0-.16,0,0.16,0.16,0,0,0,0-.19h-0.38a0.31,0.31,0,0,0-.36,0l0,0-0.07,0H124.7s0-.06,0-0.09a0.23,0.23,0,0,0-.12-0.21h-1.08a9.88,9.88,0,0,1-1.32-.15,0.22,0.22,0,0,1-.16,0,0.78,0.78,0,0,1-.17-0.16l-0.19-.17a0.87,0.87,0,0,0-.2-0.18,4.14,4.14,0,0,0-.56-0.2h-0.37a3.34,3.34,0,0,1-.57-0.15,0.3,0.3,0,0,1-.17,0,0.4,0.4,0,0,0-.37-0.17h0l-0.21-.16a0.25,0.25,0,0,1-.15-0.31H119a0.66,0.66,0,0,0-.1-0.29V11.63a0.12,0.12,0,0,0,0,0,0.38,0.38,0,0,0-.12-0.34,0.47,0.47,0,0,0-.2-0.2,1.38,1.38,0,0,0-.38-0.2,0.27,0.27,0,0,1-.18,0,1.29,1.29,0,0,0-.92,0l-0.18.19a2.37,2.37,0,0,0-.18.38,0.19,0.19,0,0,1-.22,0,0.58,0.58,0,0,0-.19-0.2,1.44,1.44,0,0,0-.17-0.2,0.68,0.68,0,0,1-.15-0.17,0.12,0.12,0,0,1-.06-0.11,0.67,0.67,0,0,0-.36-0.26h-0.37a0.6,0.6,0,0,0-.22.18,0.8,0.8,0,0,0-.19.2c-0.16.19-.32,0.39-0.6,0.19a0.25,0.25,0,0,1-.17,0,0.83,0.83,0,0,1-.34-0.17,1.33,1.33,0,0,1-.19-0.34,0.16,0.16,0,0,1,0-.16c-0.24-.55.1-1.16-0.19-1.7a1.53,1.53,0,0,0-.17-0.2l-0.19-.18a0.87,0.87,0,0,0-.2-0.19l-0.17-.2a1,1,0,0,0-.23-0.17,0.11,0.11,0,0,1-.11,0,0.65,0.65,0,0,1-.63,0h-0.29c-0.18.15-.41,0-0.59,0.15a0.18,0.18,0,0,1-.15,0l-0.14.21h-0.18a0.59,0.59,0,0,0-.2.13v0l0,0a0.48,0.48,0,0,0,0-.13h-0.17C109.74,8,109.65,8,109.59,7.92a1.76,1.76,0,0,0-.42-0.17h-0.33a1.89,1.89,0,0,0-1.1,0h-0.18a5.22,5.22,0,0,1-.56.18,2.21,2.21,0,0,1-.36.17,0.11,0.11,0,0,1-.12,0,0.56,0.56,0,0,0-.25.16c-0.08.12-.27,0.07-0.35,0.2l-0.2.16a4,4,0,0,0-.34.22,0.6,0.6,0,0,0-.2.18l-0.2.16a0.35,0.35,0,0,0,0,.2l0,0H104.7a0.2,0.2,0,0,0-.16-0.17,0.11,0.11,0,0,1-.13,0,2.18,2.18,0,0,1-.22-0.45,0.18,0.18,0,0,1,0-.16C104,8.39,104.17,8.15,104,8V7.66a0.42,0.42,0,0,1,0-.46A0.13,0.13,0,0,1,104,7a2.28,2.28,0,0,1,.35-0.18l0.18-.19a0.58,0.58,0,0,0,.18-0.21,3.53,3.53,0,0,0,.58-0.17h0.13l0.07,0a0.39,0.39,0,0,0,.23-0.5l0,0a0.2,0.2,0,0,0,0-.09,0.33,0.33,0,0,1,.38-0.37l0.06,0h0.08a0.08,0.08,0,0,0,.08-0.07,0.44,0.44,0,0,0,.27-0.09c0.1-.11.27-0.08,0.37-0.19s0.4,0,.56-0.17h0.13a1.8,1.8,0,0,0,.43-0.16h0.11a1.39,1.39,0,0,0,.62-0.37A2.63,2.63,0,0,0,109,3.86a0.84,0.84,0,0,0,0-.74A0.16,0.16,0,0,1,109,3a0.09,0.09,0,0,0,0-.09,0.08,0.08,0,0,0,0,0,0.4,0.4,0,0,0-.11-0.36l-0.15-.2a0.1,0.1,0,0,1-.05-0.11A0.46,0.46,0,0,0,108.47,2a0.1,0.1,0,0,1,0-.13,2.91,2.91,0,0,0-.2-0.79,1.44,1.44,0,0,0-1.1,0A0.12,0.12,0,0,1,107,1a0.38,0.38,0,0,0-.24.19,0.38,0.38,0,0,0-.19.25,0.11,0.11,0,0,1,0,.12,0.64,0.64,0,0,1-.16.16,0.44,0.44,0,0,1-.38,0l-0.15,0a0.56,0.56,0,0,0-.21-0.18,0.34,0.34,0,0,0-.25-0.19,0.11,0.11,0,0,1-.12,0,1,1,0,0,0-.23-0.14H103a6.52,6.52,0,0,1-.78.13h-0.35c-0.17.17-.41,0-0.58,0.17a2.08,2.08,0,0,1-.36.17,0.11,0.11,0,0,1-.13,0c-0.32.16-.69,0-1,0.16a1.88,1.88,0,0,0-.34.22,1.21,1.21,0,0,0-.22.36,0.46,0.46,0,0,0-.1.32c-0.07,0-.14,0-0.14.07a0.15,0.15,0,0,1,0,.15c-0.09.12-.07,0.28-0.15,0.41V3.77a2.25,2.25,0,0,0,.19.39,1.18,1.18,0,0,0,.19.19c0.09,0.12.27,0.08,0.36,0.2l0.06,0.06a0.21,0.21,0,0,1-.06.29,0.07,0.07,0,0,0,0,.06,0.11,0.11,0,0,0,0,0,0.3,0.3,0,0,0-.19.06,0.78,0.78,0,0,0-.31.2h0a6.43,6.43,0,0,1-1.26-.14H96.59c-0.24.15-.53,0-0.77,0.15a0.25,0.25,0,0,1-.18,0,1.79,1.79,0,0,1-.38.14l-0.33,0a0.86,0.86,0,0,1-.79,0,2.29,2.29,0,0,1-.35-0.2,1.13,1.13,0,0,1-.19-0.16,0.94,0.94,0,0,0-.2-0.17,0.24,0.24,0,0,0-.2-0.09,1,1,0,0,0-.1-0.13,2.28,2.28,0,0,0-.39-0.18,0.2,0.2,0,0,1-.17,0,0.51,0.51,0,0,1-.4-0.32H91.8a2.67,2.67,0,0,0-1.28,0H90a5.53,5.53,0,0,1-.58.14H89.07a5.67,5.67,0,0,1-.59.15,0.21,0.21,0,0,1-.17,0,0.53,0.53,0,0,1-.59,0,0.78,0.78,0,0,0-.18-0.2,2.17,2.17,0,0,0-.2-0.37,1.36,1.36,0,0,0-.2-0.38A1.68,1.68,0,0,0,87,3.13C86.86,3,86.89,2.86,86.8,2.75a0.15,0.15,0,0,1,0-.15c-0.08-.13-0.07-0.29-0.15-0.41a0.16,0.16,0,0,1,0-.15,1.4,1.4,0,0,0-.18-0.41,1.08,1.08,0,0,0-.21-0.37,0.46,0.46,0,0,0-.19-0.21,0.6,0.6,0,0,0-.2-0.2A0.37,0.37,0,0,0,85.62.67a0.1,0.1,0,0,1-.12,0A0.55,0.55,0,0,0,85.25.53l-0.31,0c-0.13-.06-0.28-0.06-0.41-0.13a0.14,0.14,0,0,1-.14,0A2.76,2.76,0,0,1,84,.19H83.83A1.76,1.76,0,0,1,83.45,0a0.21,0.21,0,0,1-.17,0C83.1-.1,82.87,0,82.69-0.1H81.61a0.34,0.34,0,0,0-.36,0h-0.9l0,0a0.14,0.14,0,0,0,0,.2,3.09,3.09,0,0,0,.92.27h-1a0.83,0.83,0,0,0-.69,0H79.24A0.71,0.71,0,0,0,79,.51a0.43,0.43,0,0,1-.26.13,0.92,0.92,0,0,0-.53,0H78a0.12,0.12,0,0,1-.14,0,0.08,0.08,0,0,0-.07.13h0a0.47,0.47,0,0,0-.32.08,0.13,0.13,0,0,1-.14,0A2,2,0,0,0,77,1a0.09,0.09,0,0,1-.12,0,0.09,0.09,0,0,0-.07.16c0.17,0,.35.05,0.17,0.24a0.39,0.39,0,0,0-.27-0.08,0.54,0.54,0,0,0-.25.06,0.18,0.18,0,0,1-.17,0c-0.11.09-.28,0.07-0.39,0.17a2,2,0,0,1-.36.17,0.09,0.09,0,0,1-.11,0,0.52,0.52,0,0,0-.26.14,0.08,0.08,0,0,1-.11,0,0.44,0.44,0,0,0-.26.16,3.12,3.12,0,0,0-.36.2l-0.2.16a1,1,0,0,1-.34.17H72a0.57,0.57,0,0,0-.22.18l-0.19.15H71.44a3.78,3.78,0,0,1-.75.14l-0.34,0a1.11,1.11,0,0,0-.23.16,0.54,0.54,0,0,0,0,.56,1.89,1.89,0,0,0,.23.34,0.32,0.32,0,0,0,.2.2,0.38,0.38,0,0,0,.19.21,0.51,0.51,0,0,1,0,.3,0.42,0.42,0,0,1,0,.11,0.41,0.41,0,0,1-.11.11,0.86,0.86,0,0,0,0,.11l-0.1.07H70.41a0.83,0.83,0,0,0,0,.09l-0.05.05L70.3,5.5s0,0,0,0h0a0.11,0.11,0,0,1-.12.06,0.47,0.47,0,0,0-.26.16,1.19,1.19,0,0,1-.36.15H69.34a2.15,2.15,0,0,1-.56.14H68.24a1,1,0,0,1-.93.11L67,6.08a0.62,0.62,0,0,0-.54,0,0.16,0.16,0,0,1-.15,0,1,1,0,0,0-.23.16,0.59,0.59,0,0,1-.17.16,1.37,1.37,0,0,1-.16.19,0.44,0.44,0,0,0-.17.26,0.09,0.09,0,0,1,0,.11c-0.09.11-.06,0.28-0.16,0.38a1,1,0,0,0-.09.67,0.7,0.7,0,0,1,.11.13,1.11,1.11,0,0,0,.07.83,0.18,0.18,0,0,1,0,.16c0.16,0.17,0,.41.16,0.58a0.15,0.15,0,0,1,0,.15,0.29,0.29,0,0,0,.17.22l0,0a0.35,0.35,0,0,0,0,.37,0.15,0.15,0,0,1,0,.15,0.89,0.89,0,0,1,0,.8,1.31,1.31,0,0,0-.2.18c-0.1.11-.27,0.08-0.37,0.18S65,11.86,64.87,12l-0.19.18a0.63,0.63,0,0,0-.17.24,0.15,0.15,0,0,1,0,.14,0.9,0.9,0,0,1-.08.24,1.27,1.27,0,0,0-.18.2,0.64,0.64,0,0,0-.19.2,0.62,0.62,0,0,0-.2.2,0.67,0.67,0,0,0-.2.19,1.55,1.55,0,0,0-.2.18,1.4,1.4,0,0,1-.19.17,4,4,0,0,0-.34.22,0.82,0.82,0,0,0-.21.17,2.81,2.81,0,0,0-.36.2l-0.2.15a0.13,0.13,0,0,1-.13,0,0.58,0.58,0,0,0-.25.16,2.24,2.24,0,0,1-.36.18,2.49,2.49,0,0,1-.36.17,0.11,0.11,0,0,1-.12,0,0.66,0.66,0,0,0-.24.14,0.19,0.19,0,0,1-.16,0,2,2,0,0,0-.4.17,1.68,1.68,0,0,1-.31.16,0.47,0.47,0,0,0-.48.24,0.12,0.12,0,0,1-.12,0,0.4,0.4,0,0,0-.25.18l-0.19.15H58.39c-0.17.17-.41,0-0.58,0.17a0.12,0.12,0,0,1-.12,0,0.72,0.72,0,0,0-.24.13,0.19,0.19,0,0,1-.15,0l-0.22.14a0.17,0.17,0,0,1-.14,0,0.73,0.73,0,0,0-.27.22,0.1,0.1,0,0,1-.11,0,0.42,0.42,0,0,0-.26.17l-0.18.14a0.15,0.15,0,0,1-.13.06,0.47,0.47,0,0,0-.24.17l-0.18.15H55.38A1.8,1.8,0,0,1,55,17.36l-0.23-.15a0.2,0.2,0,0,1-.15,0,0.79,0.79,0,0,0-.24-0.13L54.08,17a3.8,3.8,0,0,0-1.46,0,0.26,0.26,0,0,1-.18,0c-0.1.1-.27,0.07-0.38,0.16a0.13,0.13,0,0,1-.13,0,0.27,0.27,0,0,0-.12.12,0.11,0.11,0,0,0-.12,0,0.16,0.16,0,0,1-.13,0,0.51,0.51,0,0,0-.24.17,1,1,0,0,1-.18.15,0.18,0.18,0,0,1-.21.09,0.76,0.76,0,0,0-.23.15H50.3v0l-0.11-.07A0.54,0.54,0,0,0,50,17.72H49.6a3.89,3.89,0,0,0-1.46,0H47.77c-0.16.18-.41,0-0.57,0.18a0.09,0.09,0,0,1-.11,0,0.5,0.5,0,0,0-.26.16c-0.09.12-.27,0.08-0.36,0.2l-0.19.15a0.11,0.11,0,0,1-.11,0,0.34,0.34,0,0,0-.25.19,0.42,0.42,0,0,0-.2.2,2.69,2.69,0,0,0-.22.35,2.87,2.87,0,0,1-.36.19,0.09,0.09,0,0,1-.11,0,0.57,0.57,0,0,0-.26.15c-0.08.12-.27,0.08-0.35,0.21a0.61,0.61,0,0,0-.2.19,0.71,0.71,0,0,0-.19.19,0.54,0.54,0,0,0-.19.2,1.67,1.67,0,0,0-.21.36,0.47,0.47,0,0,0-.17.26,0.1,0.1,0,0,1,0,.11,2.12,2.12,0,0,1-.18.36c-0.1.11-.07,0.28-0.18,0.38l0,0a0.23,0.23,0,0,0,0,.32,0.21,0.21,0,0,0-.14.06,1.66,1.66,0,0,0-.19.38,1.5,1.5,0,0,0-.2.38,3,3,0,0,1-.21.33,0.47,0.47,0,0,1-.15.18,0.7,0.7,0,0,0-.16.25V24a1.37,1.37,0,0,0,.13.4,0.92,0.92,0,0,0,.56.34H43a0.09,0.09,0,0,0,0,0,0.23,0.23,0,0,0,.14,0l0.07,0a0.1,0.1,0,0,0,0,0,0.17,0.17,0,0,0,0,.15c0.11,0.11.28,0.08,0.38,0.18l0.35,0.2a0.63,0.63,0,0,1,.16.16v0.2l-0.17.19a0.23,0.23,0,0,0,0,.16s-0.09,0-.11.12a0.42,0.42,0,0,0-.2.2l-0.21.14H42.81c-0.18.16-.42,0-0.6,0.16a0.15,0.15,0,0,1-.14,0,1.81,1.81,0,0,0-.42.17c-0.1.11-.27,0.08-0.37,0.18s-0.27.08-.36,0.2l0,0a0.15,0.15,0,0,0,0,.08,0.1,0.1,0,0,0-.11,0,0.11,0.11,0,0,0-.06.14,0.85,0.85,0,0,1-.53,0c-0.24.15-.53,0-0.77,0.15a0.17,0.17,0,0,1-.16,0,0.92,0.92,0,0,0-.4.2,1,1,0,0,0-.22.15,1,1,0,0,1-.35.16,0.18,0.18,0,0,1-.17,0l0,0a0.16,0.16,0,0,0,0,.11H37.77s0,0,0,0l-0.05,0a0.25,0.25,0,0,0,0-.22,0.14,0.14,0,0,1-.14,0,1.74,1.74,0,0,1-.34-0.2A0.54,0.54,0,0,1,37,27.73l-0.19-.17a1.33,1.33,0,0,0-.2-0.18,0.6,0.6,0,0,0-.2-0.19A0.39,0.39,0,0,0,36.22,27a0.17,0.17,0,0,1-.13-0.07,0.14,0.14,0,0,0-.07,0L36,26.81a1,1,0,0,1-.18-0.17l-0.2-.17a0.63,0.63,0,0,0-.2-0.19,0.36,0.36,0,0,0-.25-0.19A0.12,0.12,0,0,1,35,26a1.08,1.08,0,0,1-.18-0.15,1.19,1.19,0,0,0-.2-0.18c-0.08-.13-0.27-0.08-0.34-0.21l-0.2-.16a2.06,2.06,0,0,0-.38-0.19H33.53L33.13,25H32.48c-0.07,0-.27.1-0.07,0.15a0.49,0.49,0,0,1,.49.19,1.1,1.1,0,0,0-.58-0.2,0.45,0.45,0,0,0-.36.1,1.4,1.4,0,0,0-.37.21,0.85,0.85,0,0,0-.21.16,0.11,0.11,0,0,1-.12,0,0.68,0.68,0,0,0-.25.13h-0.2a0.3,0.3,0,0,0-.36,0,0.23,0.23,0,0,1-.16,0,1.11,1.11,0,0,0-.22.17,0.7,0.7,0,0,0-.17.24v0.63a1.59,1.59,0,0,1,0,1,0.16,0.16,0,0,1,0,.14,0.74,0.74,0,0,0-.14.23,0.15,0.15,0,0,1,0,.14,0.64,0.64,0,0,0-.15.38,0.11,0.11,0,0,1,0,.12,1,1,0,0,0,0,.92,0.36,0.36,0,0,0,.25.19H30c0.24,0.16.55,0,.79,0.16h0.11a1,1,0,0,1,.16.18v0.33l0.08,0.19a0.37,0.37,0,0,0-.07.1A0.17,0.17,0,0,1,31,31a1.71,1.71,0,0,0-.16.43,0.13,0.13,0,0,1,0,.13,0.65,0.65,0,0,0,0,.73,1.71,1.71,0,0,0,.36.21c0.15,0.16.67,0.09,0.36,0.55l-0.16.22a0.28,0.28,0,0,1-.06.17v0.07a0.12,0.12,0,0,0,0,.07h0a0.62,0.62,0,0,0-.15.33v0.29a0.17,0.17,0,0,0,0,.22l0.06,0.07-0.05.19-0.15.08V35a0.33,0.33,0,0,0-.24,0,1.08,1.08,0,0,0-.2.16,0.67,0.67,0,0,0-.12.21s0,0,0,0v0c0-.06,0-0.11,0-0.18a3.61,3.61,0,0,1-.93-0.11,0.14,0.14,0,0,1-.16,0c-0.17-.16-0.41,0-0.58-0.16H28.48a1.12,1.12,0,0,1-.56-0.33,0.3,0.3,0,0,0-.17-0.22,1.51,1.51,0,0,0-.17-0.21A0.5,0.5,0,0,1,27.43,34a2.07,2.07,0,0,0-.24-0.3,0.23,0.23,0,0,0-.2-0.2,1.13,1.13,0,0,0-.32-0.24,0.51,0.51,0,0,0-.17-0.05,0.09,0.09,0,0,0-.06-0.1l-0.19,0v0.07h0l-0.36-.06v0A0.53,0.53,0,0,0,25.82,33H24.94l-0.4.14H24a3.72,3.72,0,0,1-.57.15,0.22,0.22,0,0,1-.16,0,0.72,0.72,0,0,1-.22.15,2.12,2.12,0,0,0-.35.38,0.41,0.41,0,0,0-.09.31,0.47,0.47,0,0,1,0,.06,0.13,0.13,0,0,0-.06.05,0.24,0.24,0,0,1,0,.17,0.47,0.47,0,0,1-.07.12,0.3,0.3,0,0,0,0,.19,0.16,0.16,0,0,0-.17.08,0.19,0.19,0,0,1,0,.15,0.07,0.07,0,0,0,0,.06,0.09,0.09,0,0,0,0,.06l-0.09.07H22.19v0.07l-0.06.08s-0.08,0-.11.06a0.53,0.53,0,0,0-.2.2,0.56,0.56,0,0,0-.2.19l-0.19.15a0.16,0.16,0,0,1-.13,0l0,0a0.1,0.1,0,0,0,0,.12,0.47,0.47,0,0,0-.16,0,0.2,0.2,0,0,1-.16,0,1.16,1.16,0,0,0-.37.18H20.32a0.39,0.39,0,0,0-.38,0,1.56,1.56,0,0,0-.39-0.23,0.23,0.23,0,0,1-.17,0,4.31,4.31,0,0,0-.59-0.16H18.26a1.85,1.85,0,0,0-.63,0l-0.11-.08a2,2,0,0,0-.2-0.44,0.4,0.4,0,0,0-.55,0,1.13,1.13,0,0,1-.2.15l-0.32.23a3.12,3.12,0,0,0-.23.33,1.17,1.17,0,0,1-.16.2,0.49,0.49,0,0,0-.17.25,0.14,0.14,0,0,1,0,.13l-0.1.2a1,1,0,0,1-.79.34l-0.3,0h0a0.12,0.12,0,0,0-.06.13,0.18,0.18,0,0,0-.19-0.15,0.19,0.19,0,0,0-.18.2,0.72,0.72,0,0,1-.19.15,0.28,0.28,0,0,1-.16.15,0.31,0.31,0,0,1-.15.16,0.48,0.48,0,0,1-.16.17,0.38,0.38,0,0,1-.16.15,0.13,0.13,0,0,1-.13.06,0.34,0.34,0,0,0-.24.19,0.86,0.86,0,0,0-.2.4,0.15,0.15,0,0,1,0,.15,4.68,4.68,0,0,1-.16.57,0.2,0.2,0,0,1,0,.18,0.62,0.62,0,0,0-.06.39l0,0.05h-0.1a0.22,0.22,0,0,1-.16.21,0.24,0.24,0,0,1-.2.17l-0.18.19a0.8,0.8,0,0,0,.19.89h0.33a1.61,1.61,0,0,1,0,.2h0.17l0,0V42h0.14l0,0a0.59,0.59,0,0,0,0,.17h0s0,0,0,0a0.43,0.43,0,0,0,.09.29,1.59,1.59,0,0,1,.16.36,0.15,0.15,0,0,1,0,.15,1.82,1.82,0,0,0,.14.34,0.21,0.21,0,0,0-.11.1,0.16,0.16,0,0,1,0,.15,2.51,2.51,0,0,1-.15.38,0.18,0.18,0,0,0-.07.18,1.1,1.1,0,0,0,.24.19H13l-0.11-.14v0.18h0a0.78,0.78,0,0,0-.2.24c-0.46.52-1,.21-1.56,0.21A0.12,0.12,0,0,1,11,44.83a0.26,0.26,0,0,1-.13-0.13,0.1,0.1,0,0,1-.06-0.11,0.33,0.33,0,0,0-.19-0.25,1,1,0,0,0-.38-0.21H10a1.75,1.75,0,0,0-.39.18c-0.11.1-.27,0.07-0.38,0.16a0.12,0.12,0,0,1-.13,0,0.69,0.69,0,0,0-.2.15,0.13,0.13,0,0,1-.14,0,0.77,0.77,0,0,0-.24.15,4,4,0,0,0-.34.22,0.45,0.45,0,0,0-.2.19,0.46,0.46,0,0,0-.2.2,0.34,0.34,0,0,0-.19.26,0.1,0.1,0,1,1-.14.13L7.26,46a0.9,0.9,0,0,0-.19.43,0.09,0.09,0,0,1,0,.12,0.5,0.5,0,0,0,0,.55,0.19,0.19,0,0,1,0,.17c0.1,0.11.07,0.28,0.16,0.39a0.09,0.09,0,0,1,0,.11,0.47,0.47,0,0,0,.16.26,1.61,1.61,0,0,0,.22.36,0.58,0.58,0,0,0,.18.21L8,48.75l0.07,0.06,0,0,0.17,0.21a2.52,2.52,0,0,1,.19.36c0.18,0.21,0,.53.18,0.74V51a0.1,0.1,0,0,0,0,0,0.09,0.09,0,0,0,.08,0s0,0.08,0,.12a3.37,3.37,0,0,0,.06,1l0,0.31a0.13,0.13,0,0,0,0,0A0.13,0.13,0,0,0,9,52.7H9v0.25a0.24,0.24,0,0,1,0,.43l-0.16.2a0.47,0.47,0,0,1-.25.32,0.24,0.24,0,0,1-.17.2v0.06a0.45,0.45,0,0,0-.19.14c-0.14.08-.09,0.27-0.22,0.35a0.74,0.74,0,0,0-.16.25,0.12,0.12,0,0,1,0,.13,0.42,0.42,0,0,0,0,.49,0.9,0.9,0,0,0,.17.21l0.19,0.18a1.3,1.3,0,0,0,.19.18,1,1,0,0,0,.18.19l0.16,0.19c0.13,0.08.08,0.27,0.21,0.35a0.65,0.65,0,0,0,.18.1l0,0.06v0.09a0.75,0.75,0,0,0,.11.26l0.08,0.09a0.09,0.09,0,0,0,0,.05,0.13,0.13,0,0,1,0,.1,0.55,0.55,0,0,1,0,.19,0.33,0.33,0,0,1-.1.29,0.15,0.15,0,0,1-.15,0,0.16,0.16,0,0,0-.06.08,0.27,0.27,0,0,0-.21,0,1.28,1.28,0,0,1-.76,0A3.49,3.49,0,0,1,7.52,58H6.84a4.67,4.67,0,0,0-.59.17c-0.1.11-.27,0.07-0.37,0.19l-0.06.06v0.08h0a0.26,0.26,0,0,0-.19,0,0.1,0.1,0,0,1-.11.06,0.68,0.68,0,0,0-.28.35,2.31,2.31,0,0,0-.16.42,0.13,0.13,0,0,1,0,.14,4,4,0,0,0-.16.59,0.14,0.14,0,0,1,0,.15c-0.16.37,0,.8-0.16,1.17a1.88,1.88,0,0,1,0,.82c0.15,0.37,0,.79.15,1.16v0.33c0.16,0.18,0,.42.16,0.6a0.13,0.13,0,0,1,0,.14,1.74,1.74,0,0,0,.2.59,0.4,0.4,0,0,0,.2.2l0,0a0.36,0.36,0,0,0,.51,0c0.11-.07.23-0.11,0.34-0.18l0,0c0.47,0,.52.08,0.53,0.55l0,0.08-0.12.21a0.12,0.12,0,0,1,0,.14,2.61,2.61,0,0,0-.15.43v0.31a1.21,1.21,0,0,0,0,.92,0.15,0.15,0,0,1,0,.16,0.78,0.78,0,0,1,.13.3v0.28H6.92l0,0a0.15,0.15,0,0,0,0,.11l0.07,0a0.16,0.16,0,0,0,0,.18,0.12,0.12,0,0,1,0,.13,0.72,0.72,0,0,0,.14.24,0.12,0.12,0,0,1,0,.13,0.61,0.61,0,0,0,.15.24,0.09,0.09,0,0,1,0,.11,0.46,0.46,0,0,0,.16.27,0.16,0.16,0,0,0,.12,0,0.31,0.31,0,0,0,.08.23,2.34,2.34,0,0,0,.2.37,0.53,0.53,0,0,1,0,.59,0.57,0.57,0,0,0-.19.2,0.58,0.58,0,0,0-.2.19,0.29,0.29,0,0,0-.11.21,0.11,0.11,0,0,0-.05,0,0.46,0.46,0,0,0-.18.24,0.18,0.18,0,0,1,0,.14,0.75,0.75,0,0,0,0,.73l0,0a0.11,0.11,0,0,0,.09,0,0.3,0.3,0,0,0,0,.07,2.05,2.05,0,0,0,.36.2,2.31,2.31,0,0,0,.38.17,1.82,1.82,0,0,0,1.29,0H9.51a5.07,5.07,0,0,0,.6-0.16h0.11A1.81,1.81,0,0,0,10.66,73h0.15a4.19,4.19,0,0,1,.92-0.12l0,0h0a0.08,0.08,0,0,0,0,.11c0,0.08,0,.08.1,0.08H12a0.77,0.77,0,0,0,.21.16l0.34,0.22a0.5,0.5,0,0,1,.17.17,6.3,6.3,0,0,1,.56.72,0.17,0.17,0,0,1,0,.16,2,2,0,0,0,.17.4h0a3,3,0,0,0-.18.55,0.12,0.12,0,0,1,0,.14h0a0.24,0.24,0,0,0-.06.23l0,0a0.51,0.51,0,0,0-.14.21,0.1,0.1,0,0,1,0,.12,0.09,0.09,0,0,0,0,.1,0.16,0.16,0,0,0,.06.11H12.91a0.4,0.4,0,0,1-.22.34V76.9a0.16,0.16,0,0,0-.14,0,1.39,1.39,0,0,0-.18.2,0.57,0.57,0,0,0-.19.2,4,4,0,0,0-.22.34c-0.09.11-.06,0.28-0.16,0.39v0.48A0.91,0.91,0,0,0,12,79a0.23,0.23,0,0,0,.11.08,0.09,0.09,0,0,0,.06.07,0.68,0.68,0,0,0,.19.19,0.54,0.54,0,0,0,.2.19c0.08,0.12.06,0.27,0.14,0.39a1.64,1.64,0,0,1,0,.7,0.12,0.12,0,0,0,0,.06,0.12,0.12,0,0,0,.16,0,0.1,0.1,0,0,0,0,0l-0.07,0a2.87,2.87,0,0,0-.17.49,0.35,0.35,0,0,1,0,.31c-0.1.12-.07,0.28-0.16,0.39a0.3,0.3,0,0,0-.11.25,0.38,0.38,0,0,1,0,.08l-0.07,0a0.29,0.29,0,0,0,0,.09l0,0-0.3.07v0.1l0,0-0.09,0a0.25,0.25,0,0,0-.22.05,0.12,0.12,0,0,1-.15,0l0,0.07H11.35a0.21,0.21,0,0,0-.15.08A1.1,1.1,0,0,1,11,82.78a8.24,8.24,0,0,1-1.73-.07H8.11a0.12,0.12,0,0,0,0,.15H7.69v0H7.14l-0.32,0a0.13,0.13,0,0,0-.07.07,0.13,0.13,0,0,0,0,.09H6.59l0,0v0H6.39a0.11,0.11,0,0,1-.1,0l-0.05,0a0.09,0.09,0,0,0,0,.13h0a0.42,0.42,0,0,0,0,.07,0.47,0.47,0,0,0-.14-0.1H6a0.15,0.15,0,0,1-.16.06l0,0a0.09,0.09,0,0,0,0,.07,0.29,0.29,0,0,0-.13,0,0.13,0.13,0,0,1-.14.06,0.49,0.49,0,0,0-.24.17,0.83,0.83,0,0,1-.18.14h0a0.08,0.08,0,0,1-.1.06,0.3,0.3,0,0,0-.19.13,0.31,0.31,0,0,0-.2.2,0.3,0.3,0,0,0-.2.21,0.26,0.26,0,0,0-.2.21,1.36,1.36,0,0,0-.25.32,1.09,1.09,0,0,0-.09.23v0H3.79l-0.18.19a0.47,0.47,0,0,1-.32.24,0.24,0.24,0,0,1-.22.14,0.39,0.39,0,0,1-.38.18L2.52,86l-0.09-.09a4.17,4.17,0,0,1-1.1-.09H1A2.25,2.25,0,0,0,.47,86a1,1,0,0,0-.2.17,1.28,1.28,0,0,0-.18.2A0.32,0.32,0,0,0,0,86.8l0.06,0v0.54a0.48,0.48,0,0,1,.23.33,0.24,0.24,0,0,1,.15.21,0.41,0.41,0,0,1,.22.33H0.84l0.06,0,0,0v0.24a0.41,0.41,0,0,1,.22.34,0.22,0.22,0,0,1,.14.22,0.43,0.43,0,0,1,.22.34,3.3,3.3,0,0,0,.33.41,2,2,0,0,1,.56.55,0.22,0.22,0,0,1,.21.15,0.45,0.45,0,0,1,.36.2H3.34a0.36,0.36,0,0,0,.12.17H3.61c0.22,0.18.53,0,.81,0.19a1.33,1.33,0,0,0,.39.18,6.39,6.39,0,0,1,.58.56,1.11,1.11,0,0,0,.14.22,0.13,0.13,0,0,1,0,.14,1.62,1.62,0,0,1,.11.42l0,0v0.27a0.32,0.32,0,0,0,.15,0,0.57,0.57,0,0,0-.22.22,2.93,2.93,0,0,0,.06,1,0.29,0.29,0,0,1,0,.16,1.34,1.34,0,0,0,.54.59,0.56,0.56,0,0,0,.25.16H6.58a0.25,0.25,0,0,0,.33,0v0a0.14,0.14,0,0,0,.09.13H7.14c0.22,0.18.54,0,.76,0.18H8.07a3.7,3.7,0,0,1,.5.21,1.88,1.88,0,0,0,.42.17,0.19,0.19,0,0,1,.14,0,0.74,0.74,0,0,0,.24.1h0v0a0.47,0.47,0,0,1,.36.2,0.44,0.44,0,0,1,.36.2h0.34l0,0.16H11a0.09,0.09,0,0,0,0,.08,0.18,0.18,0,0,0,.07.15,0.49,0.49,0,0,1,.18,0,1.82,1.82,0,0,1,.57.19h0.42c0.62,0.25,1.33-.06,2,0.18a3,3,0,0,0,1.22.08,0.34,0.34,0,0,0,0-.11l0,0,0.2,0.16H17A1.08,1.08,0,0,0,17,97h0.39V96.86a1.87,1.87,0,0,1-.14-0.15l0.15,0.1v0a0.29,0.29,0,0,0,.34,0,6,6,0,0,1,2.26,0h0.15c0.24,0.16.54,0,.78,0.16h0.46a1.68,1.68,0,0,0,.43-0.16h0.1q0.2,0,.08-0.15h0a0.35,0.35,0,0,0,.36,0h0.13A2.28,2.28,0,0,0,23,96.41a1.25,1.25,0,0,1,.42-0.13l0.08,0h0.6l0.06-.15h0L24.21,96v0a1.07,1.07,0,0,0,.93,0h0.14c0.55-.23,1.16.07,1.71-0.18h0.3a7,7,0,0,0,1-.19,0.7,0.7,0,0,1,.2-0.16,0.75,0.75,0,0,0,.08-0.16v0l0.08,0V95.24l0,0a0.77,0.77,0,0,0,.09-0.12h0V95a2.17,2.17,0,0,1,.11-0.2l0-.06h0V94.69l0.11-.13v0h0V94.45l0.05-.08h0.19a1.13,1.13,0,0,1,0-.15h0a0.46,0.46,0,0,0,.29-0.08,2.31,2.31,0,0,1,1.12,0,8.42,8.42,0,0,1,1.12.18l0.38,0.18a0.56,0.56,0,0,0,.2.19,0.24,0.24,0,0,0,.12.09,0.12,0.12,0,0,0,0,.17,0.48,0.48,0,0,1,0,.58V96.4a2.09,2.09,0,0,0,.2.38,0.29,0.29,0,0,0,.21.11h0a0.08,0.08,0,0,0,.08.05h0.06a2,2,0,0,1,.31.12A1.08,1.08,0,0,0,34.22,97v0c0.13,0.08.3,0.05,0.44,0.14h0.13a0.56,0.56,0,0,0,.33.11l0.07,0s0,0.07,0,.11l0.35,0h0a0.07,0.07,0,0,0,0,.1q0,0.09.08,0.09a0.3,0.3,0,0,1,.15,0l0,0a0.11,0.11,0,0,0,.15,0h0a0.12,0.12,0,0,0,0-.17V96.64a0.63,0.63,0,0,0,0-.52H35.9A0.61,0.61,0,0,0,36.08,96a0.86,0.86,0,0,0,.17-0.21,2.63,2.63,0,0,1,.58-0.55c0.11-.1.27-0.07,0.38-0.17h0.14c0.18-.16.42,0,0.6-0.16h0.21a0.1,0.1,0,0,0,0-.06h0a1.17,1.17,0,0,0,.67-0.09H39a4.58,4.58,0,0,0,.78-0.21h0.1c0.19-.15.44,0,0.63-0.15v0c0,0.08.1,0.08,0.18,0H40.9c0.23-.18.54,0,0.77-0.18h0.2A0.85,0.85,0,0,0,42.1,94l0,0h0.31A0.72,0.72,0,0,1,43,93.79V93.71H43.5l0,0.08h0.19l0.19,0.07h0.16A0.23,0.23,0,0,0,44,94h0.24a2.41,2.41,0,0,0,1.49,0s0,0,0,.06A1.41,1.41,0,0,0,46.65,94a6.34,6.34,0,0,0,.75-0.19c0.11-.1.27-0.07,0.38-0.16a0.24,0.24,0,0,1,.16,0,4.87,4.87,0,0,0,.57-0.2,5.52,5.52,0,0,1,1-.15h0.25s0,0,0,0a0.27,0.27,0,0,0,.18.17H50a0.28,0.28,0,0,0,.3,0,0.28,0.28,0,0,0,.07.11,3.57,3.57,0,0,0,.6.18,1.29,1.29,0,0,1,.65,0,11.55,11.55,0,0,0,1.16-.16H53a1.76,1.76,0,0,0,.58-0.23h0.15a1.58,1.58,0,0,0,.42-0.16l0.37-.18c0.09-.12.27-0.08,0.36-0.19l0.29-.2H55.2a0.82,0.82,0,0,0,0-.09,0.27,0.27,0,0,0,0-.08h0.1a0.25,0.25,0,0,1,.2-0.17l0.23-.13L56,92l0.19-.19,0.18-.19a2.05,2.05,0,0,1,0-.21h0l0.22,0.06,0.17-.19V91.13s0,0,0-.06H56.9a0.24,0.24,0,0,1,.2-0.17,0.38,0.38,0,0,1,.37-0.19,2,2,0,0,1,1-.2l0,0a1.37,1.37,0,0,1,.42.14,4.84,4.84,0,0,0,.58.18h0.1a1.14,1.14,0,0,0,.92,0,1.35,1.35,0,0,0,.18-0.21V90.32a2.93,2.93,0,0,1-.16-0.38,0.16,0.16,0,0,1,0-.14,0.24,0.24,0,0,0-.13-0.2h0a0.09,0.09,0,0,0,0-.08,0.16,0.16,0,0,0-.06-0.14,0.13,0.13,0,0,1,0-.13c-0.15-.19,0-0.43-0.15-0.61V88.25c0.13-.18,0-0.42.18-0.64a0.16,0.16,0,0,1,0-.14,3.87,3.87,0,0,1,.18-0.37,0.48,0.48,0,0,1,.16-0.1,0.36,0.36,0,0,0,.14-0.12L61,86.64l0.09,0,0.11-.15V86.38a0.7,0.7,0,0,1,.09-0.16A1.11,1.11,0,0,0,61.52,86a0.33,0.33,0,0,0,.07-0.16h0.13V85.71s0,0,0,0h0.23a0.55,0.55,0,0,1,.32-0.19l0,0a0.67,0.67,0,0,0,.53-0.06H63.2a0.62,0.62,0,0,0,.53.16,2,2,0,0,1,.54-0.1,0.53,0.53,0,0,1-.06-0.19,0.15,0.15,0,0,1,.08.1,0.84,0.84,0,0,1,.57.2,0.4,0.4,0,0,1,.37.18,0.42,0.42,0,0,1,.36.2l0.2,0.17L66,86.38l0.18,0.19,0.19,0.18,0.2,0.17h0.2a1.2,1.2,0,0,0,1.65-.17h0c0.35-.08.47-0.6,0.93-0.49l0,0,0,0,0.2,0.12,0.14,0.05a0.14,0.14,0,0,0,0,.06,0.7,0.7,0,0,0,.56.33l0.07,0,0,0L70.47,87h0.15a1.11,1.11,0,0,0,.54.29l0,0a1.16,1.16,0,0,1,.75.4l0,0,0,0.05A4.52,4.52,0,0,1,70.89,89a2,2,0,0,0-.71,1.24l1.45-.62a2.39,2.39,0,0,1,2,0l1.16,0.55a4.26,4.26,0,0,1-.17,1.55s0,0,0,0h0l-0.34.4a0.37,0.37,0,0,0-.12.14c-0.36.6-.17,1,0.52,1,1,0,1.94-.35,2.94-0.24L77.61,93l0.06,0h0.56v0A0.52,0.52,0,0,0,78.64,93l0.15,0a2.4,2.4,0,0,0,1.74-1.66h0l0,0,0.28-.09a1.41,1.41,0,0,1,1.7-.41L83.2,91l0.06,0a2.81,2.81,0,0,1,.94,2.33,1,1,0,0,0,1.1,1.27,14.18,14.18,0,0,1,2.26.38,1.17,1.17,0,0,0,1.13-.23A3.86,3.86,0,0,0,89.6,94a0.47,0.47,0,0,1,0-.07A0.61,0.61,0,0,0,90,93.67a0.08,0.08,0,0,0,0,0,0.22,0.22,0,0,0,.14-0.1l0.07,0a0.3,0.3,0,0,1,0-.06,0.34,0.34,0,0,0,.13-0.1l0.08,0h0.06a1.56,1.56,0,0,1,.42-0.15H91l-0.09-.05,0,0H90.9l0,0,0.16,0L93.28,94a1.27,1.27,0,0,0,.93.29l0-.07,0.2,0,0.06,0a0.42,0.42,0,0,0,0,.08c-0.11.87-.2,1.74-0.32,2.6-0.1.66-.22,1.31-0.33,2h0a4.67,4.67,0,0,1-.93,1.87,11.56,11.56,0,0,1-3.77,2.36H89.3a0.34,0.34,0,0,0-.1.05,12.3,12.3,0,0,1-2.09.24,2.08,2.08,0,0,0-1.64.68l0,0a27.83,27.83,0,0,0-3,.67,0.91,0.91,0,0,0-.17,0,6.42,6.42,0,0,0-2.36.41,0.44,0.44,0,0,1-.15.05,0.77,0.77,0,0,0,.13-0.06,1,1,0,0,0-.78.15h-0.3l0.06,0.06-0.08,0a0.75,0.75,0,0,0-.62.14,1.85,1.85,0,0,0-1,.2l-0.15,0a0.78,0.78,0,0,0-.57.17s0,0,0,0h-0.4c-1.84.14-3.68,0.37-5.52,0.48a5.92,5.92,0,0,0-2,.27l0,0h0a2.73,2.73,0,0,0-1.43.18h0a2,2,0,0,0-1.46.37,0.53,0.53,0,0,0,.56.19h1.07a0.57,0.57,0,0,0,.21.13,0.73,0.73,0,0,0,.91.07h0.12a0.1,0.1,0,0,0,0-.14l0,0,0.14,0.06a8.63,8.63,0,0,0,3.06-.29A3.62,3.62,0,0,1,73.2,107v0a21.88,21.88,0,0,1,2.38-.13c-0.22.23-.18,0.41,0.25,0.63a0.44,0.44,0,0,0,0,.08h0a0.69,0.69,0,0,0,.74,0h0.74l0.11,0.11a0.15,0.15,0,0,1-.07.1,0.25,0.25,0,0,1-.16,0,2.54,2.54,0,0,0-.39.18c-0.1.36,0.28,0.21,0.39,0.36h0.15a0.74,0.74,0,0,0,.73,0h0.14a0.56,0.56,0,0,0,.23-0.18c0.15-.17.4,0,0.56-0.17h0.17a0.1,0.1,0,0,0,.06-0.16h0a0.78,0.78,0,0,0,.16,0,2,2,0,0,0,1-.1h0.13a0.28,0.28,0,0,0,.22-0.15l0.22,0-0.21,0a1.09,1.09,0,0,1,0,.11c0.19,0.07.14,0.14,0,.21a0.29,0.29,0,0,0,.35.34,1.21,1.21,0,0,1,.94-0.16h0.19a0.49,0.49,0,0,0,.55,0H83c0.17-.16.41,0,0.58-0.16h0.17a1.06,1.06,0,0,0,.36-0.19,0.68,0.68,0,0,0,.34.1,1,1,0,0,0,.26,0l0.55-.3h0.32a1.47,1.47,0,0,0,.59-0.24h0.34a1.38,1.38,0,0,1,1,0h0.15c0.42,0.22,1-.12,1.33.22a0.93,0.93,0,0,0,1.09.15,1,1,0,0,1,.52-0.1l0.1,0,0.14,0a0.41,0.41,0,0,1,.18,0,0.62,0.62,0,0,0,0-.18h0a0.27,0.27,0,0,0,0,0v0c0.21,0.1.27-.09,0.37-0.19h0.35l0-.13h0.1a15,15,0,0,1,1.83.15H93.55a2.75,2.75,0,0,0-.38.19,0.42,0.42,0,0,0-.14.15,0.66,0.66,0,0,1-.11.17c-0.07.07-.12,0.13-0.19,0.19a1.68,1.68,0,0,1,0,.55,0.22,0.22,0,0,1-.15,0,3.74,3.74,0,0,1-.43.16,4.93,4.93,0,0,0-.52.23,2.28,2.28,0,0,0-.27.4,0.29,0.29,0,0,0,.09.22,0.64,0.64,0,0,0,.36.09h0.25a1.67,1.67,0,0,1,1.07-.13h0.15a0.56,0.56,0,0,0,.21.13,0.47,0.47,0,0,0,.35-0.08,0.17,0.17,0,0,0,0-.14h0a2,2,0,0,1,.64-0.07,0.3,0.3,0,0,0,.17-0.08h0.23a0.25,0.25,0,0,0,.11.1,0.46,0.46,0,0,0,.25,0,2.66,2.66,0,0,0,.42-0.43,0.17,0.17,0,0,1,.15,0,1.14,1.14,0,0,0,.37-0.21h0.33l0.32-.14a0.78,0.78,0,0,1,.21,0h0a0.78,0.78,0,0,1,.21,0,0.37,0.37,0,0,0,.24-0.05v0c0.74-.06,1.49-0.08,2.26-0.1a0.17,0.17,0,0,0,.16-0.26c-0.6-.28-1.27.06-1.87-0.19H97.55l-0.1-.1a0.29,0.29,0,0,1,.09-0.14h0.52a5.85,5.85,0,0,1,.62-0.14,4.09,4.09,0,0,0,1.06,0,0.32,0.32,0,0,0,.34,0h0.77a0.12,0.12,0,0,0,.17,0h0.71c0.33-.18.72,0.13,1-0.18h0.12c0.32-.15,0-0.52.26-0.7a1.83,1.83,0,0,1,.75,0,0.89,0.89,0,0,0,.63,0l0.08,0h1.28l0,0h0.56l0,0,0.1,0.08a10.77,10.77,0,0,1,1.37.07h0.32l0.41-.16h1.12a1.13,1.13,0,0,0,.93,0h0.73v0a7,7,0,0,1,.77.15h0.16a0.65,0.65,0,0,0,.4.14c0.28,0.25.67-.23,1,0.25s0.57,0.11.84,0h0.32a1.35,1.35,0,0,1,.92,0,0.5,0.5,0,0,0,.43.11,0.66,0.66,0,0,1,.41-0.06c0.09,0,.19.09,0.28,0.15a1.07,1.07,0,0,0,.31.32h0c0,0.06.06,0.07,0.12,0.05a1.06,1.06,0,0,0,.18.08,0.86,0.86,0,0,0,.34,0,0.93,0.93,0,0,0,.25-0.07H119a1.29,1.29,0,0,1,.79.11,2.94,2.94,0,0,0,2,.22c0.33,0,.3-0.28.09-0.49l0.18-.18h1.3v0h0.18a0.24,0.24,0,0,0,.33,0c0.16-.24-0.06-0.38-0.17-0.55a3.33,3.33,0,0,0-.57-0.2h-0.36a1.44,1.44,0,0,0-.34-0.12,0.74,0.74,0,0,0,.2-0.23h0.56c0.37,0.18.77,0,1.16,0.13h0.32a0.16,0.16,0,0,1,.23,0h0.53c0.8,0.29,1.56-.18,2.35-0.1h0a0.88,0.88,0,0,1,0,.14l1,0a2,2,0,0,1,.37.16h0.18a0.13,0.13,0,0,0,.18,0,0.14,0.14,0,0,0,0-.18c-0.08-.06-0.14-0.13-0.21-0.18h-0.17c-0.11-.11-0.29-0.06-0.39-0.17h-0.37l0,0a0.43,0.43,0,0,0,0-.06,0.69,0.69,0,0,0-.2-0.12,0.31,0.31,0,0,1,.2,0c0.19-.16-0.57-0.56.19-0.56v-0.14a1.13,1.13,0,0,0-.17,0l0.16,0H130a0.1,0.1,0,0,0,0,0,0.15,0.15,0,0,0,0,.15,0.56,0.56,0,0,0,.66.31,2.16,2.16,0,0,1,1.05.06h0.12a13.27,13.27,0,0,1,2,.45,0.64,0.64,0,0,0,.75-0.1c0.2,0-.1-0.35.2-0.25a1.18,1.18,0,0,1,.81,0,0.51,0.51,0,0,0,.37-0.07,0.09,0.09,0,0,0,0,0l0,0c0.09,0.11.08,0.3,0.3,0.3l3,0.27h0.34c0.73,0.12,1.45.27,2.19,0.37a0.53,0.53,0,0,0,.39-0.08,1,1,0,0,1,.58.19h0a0.92,0.92,0,0,0,.91,0c0.06-.32-0.62-0.33-0.22-0.72l-0.89-.18a0.12,0.12,0,0,1,0,0c-0.43-.12-0.87-0.26-1.31-0.35a4.71,4.71,0,0,0-2.17-.18,4.38,4.38,0,0,1-1.81,0,7.53,7.53,0,0,0-1.36-.08h0a0.21,0.21,0,0,0-.18,0h0c-0.67-.28-1.42-0.09-2.09-0.36a13.47,13.47,0,0,1-2-.18l-0.08,0-0.28,0-0.11,0a0.38,0.38,0,0,0,.16,0,0.39,0.39,0,0,0-.41-0.12,0.38,0.38,0,0,0,.14.09,0.65,0.65,0,0,1-.19-0.06,5.45,5.45,0,0,1-1.22-.42,2.89,2.89,0,0,0-1.77-.37,2.79,2.79,0,0,1-1.27,0,4.87,4.87,0,0,0-1.45-.24,8.39,8.39,0,0,1-2.46-.33,19,19,0,0,0-6.82-1.33h0a20.67,20.67,0,0,0-3.31-.29c-1.1,0-2.21,0-3.32-.17a24.26,24.26,0,0,0-2.64-.45h-0.08A8.19,8.19,0,0,1,103,99.37h0a2.39,2.39,0,0,1-.51-2.3,5.26,5.26,0,0,0,.07-1.83v-1a13.92,13.92,0,0,0,.21-4.25h0l0-.17h-0.07l0,0h0.15a2.69,2.69,0,0,0,.89-0.15h0a5,5,0,0,0,1.6-.24l0.48-.29h0a5,5,0,0,1,.86-0.22q0.1,0.1.1-.06a3.27,3.27,0,0,1,2-.24,2.67,2.67,0,0,0,1.52-.16,11.57,11.57,0,0,1,3.75-.87,2.55,2.55,0,0,0,1.69-.28,0.61,0.61,0,0,1,.44,0,2.39,2.39,0,0,0,1.42-.09,2.82,2.82,0,0,1,2.77,1.32V88.3a0.65,0.65,0,0,0,0,.13,1.15,1.15,0,0,0,1.06.58l3.36,0.19,0.2,0a1.42,1.42,0,0,1-.22.09c0.69,0.21,1.57.08,2,.92a1,1,0,0,0,.14.08,10.43,10.43,0,0,0,.32,1,2.33,2.33,0,0,0,2.3,1.24,11.83,11.83,0,0,1,1.92.21h0a1.73,1.73,0,0,0,1.1.19l0.06,0,0,0a5.84,5.84,0,0,0,2.27,0,2,2,0,0,0,1.86-2.83,0.43,0.43,0,0,0-.18-0.36,2.39,2.39,0,0,0-.53-0.86,2.47,2.47,0,0,1-.59-1.09h-0.07l0.06-.06a1.53,1.53,0,0,0,.28-0.67l-0.19-.1a0.35,0.35,0,0,0,.11,0,0.3,0.3,0,0,0,0,0,0.38,0.38,0,0,0,.18-0.38l0,0a0.2,0.2,0,0,1,.11,0,3.14,3.14,0,0,1,2.82-1,2.83,2.83,0,0,0,1.19-.11,0.61,0.61,0,0,0,.14-0.19,3.5,3.5,0,0,0,1.22.39,0.39,0.39,0,0,0,.09.21h0.54a2,2,0,0,0,1.32.13,1,1,0,0,1,.92.22,2.48,2.48,0,0,1,2.21.94c0.24,0.1.13,0.28,0.13,0.45l-0.16.6-0.18.07a4.11,4.11,0,0,0-.19.56,1.06,1.06,0,0,0,0,.92h0a0.09,0.09,0,0,1,0,.13,2.76,2.76,0,0,0,.15.43,0.1,0.1,0,0,1,0,.13,1,1,0,0,0,.19.42,0.74,0.74,0,0,0,.22.37,0.38,0.38,0,0,0,.18.22,0.12,0.12,0,0,0,.16,0,0.33,0.33,0,0,0,.06-0.08s0,0,0,0h0a1,1,0,0,0,0,.19,0.23,0.23,0,0,1,.2.16,0.49,0.49,0,0,1,.37.19H148a1.22,1.22,0,0,0,.75,0V92h0.55a1.2,1.2,0,0,1,.73-0.2,0.93,0.93,0,0,0,.23-0.86c0.1,0,.16,0,0.16-0.11a1.61,1.61,0,0,1,0-.86,1.85,1.85,0,0,1,.17-0.36,0.42,0.42,0,0,0,.15-0.23A0.58,0.58,0,0,0,151,89a1.22,1.22,0,0,0,.21-0.37,3.47,3.47,0,0,1,.2-0.35,0.73,0.73,0,0,0,.15-0.22,0.39,0.39,0,0,0,.14-0.36s0,0,0-.06a0.75,0.75,0,0,0,.16-0.4l0,0a0.06,0.06,0,0,1,0-.08,4.37,4.37,0,0,0,.17-0.59V86.21c0.09-.11.07-0.27,0.15-0.39a0.38,0.38,0,0,0,.19-0.21,0.23,0.23,0,0,0,.12-0.18h0.16a0.24,0.24,0,0,1,.12-0.18,0.25,0.25,0,0,1,.21-0.16l0.38-.36a0.23,0.23,0,0,1,.18-0.19,10639349.14,10639349.14,0,0,1,.34-0.4l0.17-.2a0.25,0.25,0,0,1,.19-0.19l0.2-.17a0.23,0.23,0,0,1,.21-0.16V83.28h0v0a4.58,4.58,0,0,1,.59.13,0.57,0.57,0,0,0,.72,0,0.29,0.29,0,0,1,.39,0,4.12,4.12,0,0,0,.19.37,1.42,1.42,0,0,0,.55.56,1.31,1.31,0,0,0,.43.17h0.13a0.47,0.47,0,0,0,.55,0h0.34a0.33,0.33,0,0,0,.2-0.18,1,1,0,0,0-.16-0.16,0.39,0.39,0,0,1,.22.14H159a0.24,0.24,0,0,0,.36,0h0.12a1.9,1.9,0,0,1,1,0v0.09a0.25,0.25,0,0,1,.21.16h0.28l-0.07,0v0.37h0a0.61,0.61,0,0,0-.11.11,4.82,4.82,0,0,0,.07,1.39,0.13,0.13,0,0,1,0,.14A1.18,1.18,0,0,0,161,87a1.22,1.22,0,0,0,.17.2,1.17,1.17,0,0,0,.2.17l0,0a0.21,0.21,0,0,0,.25,0,0.17,0.17,0,0,0,.05.1,3.69,3.69,0,0,0,.81.18h0.13a0.74,0.74,0,0,0,.21.16,0.33,0.33,0,0,0,.21.19c0.05,0.11.1,0.11,0.14,0a0.29,0.29,0,0,0,.18.22l0.19,0.17a0.68,0.68,0,0,0,.19.19,0.86,0.86,0,0,0,.18.2,1,1,0,0,0,.22.36,0.45,0.45,0,0,0,.17.22,1,1,0,0,0,.19.18,1.13,1.13,0,0,0,.43.17H165a1.65,1.65,0,0,0,.61-0.19,1.62,1.62,0,0,0,.39-0.16,0.74,0.74,0,0,1,.56,0,1.41,1.41,0,0,0,.44.16h0.16l0.38,0.16a3.63,3.63,0,0,0,.55.2,0.59,0.59,0,0,0,.72,0,0.32,0.32,0,0,0,.19-0.26,1.31,1.31,0,0,1,0-.66,0.5,0.5,0,0,0,0-.49,0.37,0.37,0,0,0,.11,0,1.59,1.59,0,0,1,.56-0.55c0.27-.18.64,0,0.92-0.18h1.29a0.11,0.11,0,0,0,0-.15,0.63,0.63,0,0,0-.14-0.07H172a0.27,0.27,0,0,0,.38,0h0.12a0.43,0.43,0,0,0,.17-0.1l0.13-.11h0.06s0,0,0,0a0.71,0.71,0,0,0,.17-0.06,0.46,0.46,0,0,0,.2-0.2,0.39,0.39,0,0,0,.19-0.21,3.52,3.52,0,0,0,.39-0.81V85a2.19,2.19,0,0,0-.24-0.33,1.38,1.38,0,0,1-.17-0.36,0.14,0.14,0,0,1,0-.15l-0.14-.33a6.78,6.78,0,0,0,.2-1,0.1,0.1,0,0,1,0-.12l0.1-.18h0.07V82.39h0.22a1.46,1.46,0,0,1,1.31,0,1,1,0,0,1,.76.54H176a0.6,0.6,0,0,0,.12.32,2.07,2.07,0,0,1,.14.37,0.23,0.23,0,0,1,0,.18h0a0.11,0.11,0,0,0,.12.06,0.66,0.66,0,0,0,.07.29,0.11,0.11,0,0,1,0,.13,0.68,0.68,0,0,0,.2.24,0.34,0.34,0,0,0,.34.19s0,0.06,0,.09l0.23,0.3a0.38,0.38,0,0,1,.36.2,0.23,0.23,0,0,1,.2.17,0.25,0.25,0,0,1,.21.16l0.17,0.26a0.24,0.24,0,0,1,.16.21h0.16a0.66,0.66,0,0,0,.09.3,1.94,1.94,0,0,1,0,.87,1.09,1.09,0,0,0,.19.48,0.52,0.52,0,0,0,.2.19,2.3,2.3,0,0,0,.55.2,1.36,1.36,0,0,0,1.1,0,1.25,1.25,0,0,0,.36-0.21,1.41,1.41,0,0,0,.39-0.17,0.67,0.67,0,0,0,.24-0.21c0.4,0.13.84-.06,1.29,0H183a0.76,0.76,0,0,0,.51.09h0l-0.08,0a0.09,0.09,0,0,0,.08.16h0.14a3.35,3.35,0,0,0,.42.15h0.13a0.56,0.56,0,0,0,.36.08h0v0.07a0.08,0.08,0,0,0,.1.08h0.15a0.25,0.25,0,0,0,.31,0,0.16,0.16,0,0,0,.1.17,0.21,0.21,0,0,1,.15,0,0.25,0.25,0,0,0,.32,0s0,0,0,0a0.12,0.12,0,0,0,.09.18h0.14a0.65,0.65,0,0,0,.59,0,0.3,0.3,0,0,0,.16.13H187l0,0a0.23,0.23,0,0,0,.3,0h0a0.3,0.3,0,0,0,.41,0h0.37a2,2,0,0,0,.53-0.23h0.74a2.91,2.91,0,0,1,.38-0.17l0,0s0,0,0,.06h0.56a0.57,0.57,0,0,0,.53-0.16l0.07,0h0.74l0.14-.13a0.26,0.26,0,0,0,.18-0.08h0.55a5.12,5.12,0,0,1,.56-0.17h0.74a0.1,0.1,0,0,0,.07,0s0-.07-0.06-0.12v0l0.06,0a0.75,0.75,0,0,0,.53,0h0.74c0.1-.11.27-0.07,0.38-0.18l0.18-.17L196,87.1a1,1,0,0,1,.16-0.17,0.28,0.28,0,0,0,0-.15,0.1,0.1,0,0,0,.1,0V86.51a0.58,0.58,0,0,0,0-.13,0.3,0.3,0,0,1,0-.17c0.23-.66-0.09-1.37.2-2a2.5,2.5,0,0,1,.54-0.59,0.44,0.44,0,0,0,.21-0.18,0.76,0.76,0,0,0,.2-0.19,1.23,1.23,0,0,0,.19-0.19,1,1,0,0,0,.19-0.19,0.62,0.62,0,0,0,.19-0.2,0.38,0.38,0,0,0,.14-0.2,2.22,2.22,0,0,1,.14-0.32l0,0,0.15-.22V81.84a2.2,2.2,0,0,1,.14-0.19h0a0.09,0.09,0,0,0,.06-0.12c0.12-.09.08-0.27,0.2-0.36a0.57,0.57,0,0,0,.16-0.25,0.13,0.13,0,0,1,0-.13,0.06,0.06,0,0,0,0-.06,0.08,0.08,0,0,0,0,0,0.28,0.28,0,0,0,.17-0.07,3.93,3.93,0,0,0,.2-0.37c0.11-.1.08-0.27,0.19-0.37a0.51,0.51,0,0,0,.09-0.36h0a0.1,0.1,0,0,0,.05,0,4.3,4.3,0,0,0,.18-0.58V78.05C199.87,77.93,199.9,77.76,199.8,77.65Z" transform="translate(0.01 0.15)"/><path d="M78.79,0.42a0.22,0.22,0,0,1-.18,0l-0.07.15A0.39,0.39,0,0,0,79,.42H78.79Z" transform="translate(0.01 0.15)"/></svg>